<svg width="57" height="52" viewBox="0 0 57 52" fill="none" xmlns="http://www.w3.org/2000/svg">
<path d="M50.9317 4.13983H45.421V2.08419C45.421 1.48347 44.9215 0.99585 44.3063 0.99585C43.691 0.99585 43.1916 1.48347 43.1916 2.08419V4.13983H24.3679V2.08419C24.3679 1.48347 23.8685 0.99585 23.2532 0.99585C22.638 0.99585 22.1385 1.48347 22.1385 2.08419V4.13983H16.2562C12.9063 4.14361 10.1918 6.79354 10.1879 10.0642V28.2014C10.1879 28.8021 10.6874 29.2894 11.3026 29.2894C11.9179 29.2894 12.4169 28.8021 12.4169 28.2014V21.0676H54.771V45.1292C54.7683 47.1984 53.0511 48.875 50.9317 48.8773H16.2562C14.1368 48.875 12.4197 47.1984 12.4169 45.1292V38.8416C12.4169 38.2409 11.9179 37.7533 11.3026 37.7533C10.6874 37.7533 10.1879 38.2409 10.1879 38.8416V45.1292C10.1918 48.3999 12.9063 51.0502 16.2562 51.054H50.9317C54.2816 51.0502 56.9961 48.3999 57 45.1292V10.0642C56.9961 6.79354 54.2816 4.14361 50.9317 4.13983ZM12.4169 18.8909V10.0642C12.4197 7.99499 14.1368 6.31841 16.2562 6.31614H22.1385V9.27097C20.4601 9.80587 19.4291 11.4526 19.7065 13.1553C19.9839 14.8576 21.4876 16.1105 23.2532 16.1105C25.0189 16.1105 26.5226 14.8576 26.8 13.1553C27.0774 11.4526 26.0464 9.80587 24.3679 9.27097V6.31614H43.1916V9.27097C41.5131 9.80587 40.4821 11.4526 40.7595 13.1553C41.0369 14.8576 42.5406 16.1105 44.3063 16.1105C46.0719 16.1105 47.5756 14.8576 47.853 13.1553C48.1304 11.4526 47.0994 9.80587 45.421 9.27097V6.31614H50.9317C53.0511 6.31841 54.7683 7.99499 54.771 10.0642V18.8909H12.4169ZM23.2532 11.2736C24.0057 11.2736 24.6155 11.8691 24.6155 12.6037C24.6155 13.338 24.0057 13.9338 23.2532 13.9338C22.5012 13.9338 21.8909 13.338 21.8909 12.6037C21.8921 11.8694 22.5016 11.2744 23.2532 11.2736ZM44.3063 11.2736C45.0587 11.2736 45.6685 11.8691 45.6685 12.6037C45.6685 13.338 45.0587 13.9338 44.3063 13.9338C43.5542 13.9338 42.944 13.338 42.944 12.6037C42.9451 11.8694 43.5546 11.2744 44.3063 11.2736Z" fill="#BEAD8E"/>
<path d="M7.94582 38.435C8.38093 38.8602 8.38093 39.5487 7.94582 39.9739C7.51033 40.3991 6.80516 40.3991 6.36967 39.9739L0.548962 34.2908C0.113852 33.866 0.113852 33.1772 0.548962 32.7523L6.36967 27.0693C6.80516 26.6441 7.51033 26.6441 7.94582 27.0693C8.38093 27.4945 8.38093 28.183 7.94582 28.6082L4.0279 32.4334H25.9814C26.5966 32.4334 27.0961 32.9207 27.0961 33.5214C27.0961 34.1225 26.5966 34.6097 25.9814 34.6097H4.0279L7.94582 38.435Z" fill="#BEAD8E"/>
</svg>
