<svg width="5" height="8" viewBox="0 0 5 8" fill="none" xmlns="http://www.w3.org/2000/svg">
<path d="M1.18126 7.63778C1.2182 7.63779 1.25478 7.63053 1.28892 7.61641C1.32305 7.60229 1.35407 7.58158 1.3802 7.55547L4.84688 4.08859C4.89961 4.03585 4.92923 3.96433 4.92923 3.88975C4.92923 3.81517 4.89961 3.74365 4.84688 3.69091L1.3802 0.224032C1.35408 0.197907 1.32308 0.177181 1.28896 0.163038C1.25484 0.148894 1.21826 0.14161 1.18132 0.141602C1.14439 0.141593 1.10781 0.14886 1.07368 0.162987C1.03955 0.177114 1.00854 0.197825 0.982414 0.223938C0.95629 0.25005 0.935564 0.281053 0.921421 0.315175C0.907277 0.349298 0.899993 0.385872 0.899984 0.422809C0.899976 0.459746 0.907243 0.496324 0.92137 0.530453C0.935497 0.564582 0.956209 0.595594 0.982321 0.621719L4.25026 3.88966L0.982321 7.15759C0.942962 7.19693 0.916155 7.24705 0.905292 7.30162C0.894429 7.3562 0.899999 7.41277 0.921297 7.46418C0.942594 7.51558 0.978663 7.55952 1.02494 7.59042C1.07121 7.62132 1.12561 7.6378 1.18126 7.63778V7.63778Z" fill="#111111"/>
</svg>
