<svg width="18" height="13" viewBox="0 0 18 13" fill="none" xmlns="http://www.w3.org/2000/svg">
<path d="M4.90909 6.54545C5.39455 6.54545 5.86912 6.4015 6.27276 6.13179C6.67641 5.86208 6.99102 5.47873 7.1768 5.03022C7.36257 4.58171 7.41118 4.08819 7.31647 3.61205C7.22176 3.13592 6.98799 2.69856 6.64472 2.35528C6.30144 2.01201 5.86408 1.77824 5.38795 1.68353C4.91181 1.58882 4.41829 1.63743 3.96978 1.82321C3.52127 2.00898 3.13792 2.32359 2.86821 2.72724C2.5985 3.13088 2.45455 3.60545 2.45455 4.09091C2.45455 4.7419 2.71315 5.36622 3.17347 5.82654C3.63378 6.28685 4.2581 6.54545 4.90909 6.54545ZM4.90909 3.27273C5.07091 3.27273 5.2291 3.32071 5.36365 3.41062C5.4982 3.50052 5.60307 3.6283 5.66499 3.7778C5.72692 3.92731 5.74312 4.09182 5.71155 4.25053C5.67998 4.40924 5.60206 4.55503 5.48763 4.66945C5.37321 4.78388 5.22742 4.8618 5.06871 4.89337C4.91 4.92494 4.74549 4.90874 4.59599 4.84681C4.44648 4.78488 4.3187 4.68002 4.2288 4.54547C4.13889 4.41092 4.09091 4.25273 4.09091 4.09091C4.09091 3.87391 4.17711 3.66581 4.33055 3.51237C4.48399 3.35893 4.6921 3.27273 4.90909 3.27273ZM15.5455 1.63636H9C8.783 1.63636 8.5749 1.72256 8.42146 1.876C8.26802 2.02944 8.18182 2.23755 8.18182 2.45455V7.36364H1.63636V0.818182C1.63636 0.601187 1.55016 0.393079 1.39672 0.23964C1.24328 0.0862012 1.03518 0 0.818182 0C0.601187 0 0.393079 0.0862012 0.23964 0.23964C0.086201 0.393079 0 0.601187 0 0.818182V11.4545C0 11.6715 0.086201 11.8797 0.23964 12.0331C0.393079 12.1865 0.601187 12.2727 0.818182 12.2727C1.03518 12.2727 1.24328 12.1865 1.39672 12.0331C1.55016 11.8797 1.63636 11.6715 1.63636 11.4545V9H16.3636V11.4545C16.3636 11.6715 16.4498 11.8797 16.6033 12.0331C16.7567 12.1865 16.9648 12.2727 17.1818 12.2727C17.3988 12.2727 17.6069 12.1865 17.7604 12.0331C17.9138 11.8797 18 11.6715 18 11.4545V4.09091C18 3.43992 17.7414 2.8156 17.2811 2.35528C16.8208 1.89497 16.1964 1.63636 15.5455 1.63636ZM16.3636 7.36364H9.81818V3.27273H15.5455C15.7625 3.27273 15.9706 3.35893 16.124 3.51237C16.2774 3.66581 16.3636 3.87391 16.3636 4.09091V7.36364Z" fill="#222222"/>
</svg>
