<svg width="16" height="16" viewBox="0 0 16 16" fill="none" xmlns="http://www.w3.org/2000/svg">
<path d="M15.0753 11.8377C14.8271 11.4327 14.4419 10.9609 13.9894 10.509C13.6619 10.1815 12.5375 9.11355 11.8145 9.11355C11.5825 9.11355 11.4353 9.21271 11.353 9.29504L10.3902 10.2572C10.374 10.2734 10.3223 10.292 10.2292 10.292C9.69492 10.292 8.5621 9.70069 7.43049 8.56968C5.92148 7.06007 5.5585 5.79444 5.74299 5.60995L6.70453 4.64781C6.78746 4.56488 6.88662 4.41764 6.88662 4.18627C6.88722 3.46271 5.81871 2.33831 5.49119 2.01079C5.16427 1.68327 4.04047 0.615356 3.31631 0.615356C3.08494 0.615356 2.9377 0.713914 2.85477 0.796847L0.929892 2.72173C0.361383 3.28964 0.568714 4.40081 1.54648 6.02401C2.39504 7.43266 3.73819 9.08411 5.32713 10.673C8.14564 13.4916 10.9996 15.3852 12.4287 15.3846C12.7845 15.3846 13.0699 15.2788 13.2784 15.0703L15.2033 13.1454C15.6198 12.7289 15.2099 12.0583 15.0753 11.8377ZM12.6258 14.4176C12.6042 14.4387 12.5417 14.4615 12.4287 14.4615C11.4557 14.4615 8.86499 12.905 5.97977 10.0204C4.44191 8.48254 3.14864 6.8942 2.33734 5.54745C1.42328 4.03062 1.50922 3.44769 1.58254 3.37437L3.39444 1.56247C3.63061 1.65382 4.17809 2.00238 4.83855 2.66343C5.499 3.32449 5.84816 3.87137 5.93951 4.10754L5.09035 4.9573C4.20513 5.84252 5.34456 7.78843 6.77785 9.22233C8.00742 10.4519 9.33013 11.2151 10.2292 11.2151C10.6492 11.2151 10.9034 11.0492 11.0429 10.9098L11.8926 10.0607C12.1288 10.152 12.6757 10.5012 13.3367 11.1616C13.9972 11.8221 14.3464 12.3696 14.4377 12.6057L12.6258 14.4176Z" fill="#BEAD8E"/>
</svg>
