<svg width="65" height="66" viewBox="0 0 65 66" fill="none" xmlns="http://www.w3.org/2000/svg">
<path d="M55.9965 17.5818C55.4409 17.5817 54.8979 17.7463 54.4359 18.0549C53.9739 18.3635 53.6139 18.8021 53.4012 19.3153C53.1885 19.8285 53.1328 20.3933 53.2412 20.9381C53.3495 21.483 53.6169 21.9835 54.0097 22.3764C54.4025 22.7692 54.903 23.0368 55.4478 23.1452C55.9927 23.2536 56.5574 23.198 57.0707 22.9855C57.584 22.7729 58.0226 22.4129 58.3313 21.951C58.6399 21.4891 58.8047 20.946 58.8047 20.3905C58.8039 19.6459 58.5078 18.932 57.9814 18.4055C57.4549 17.8789 56.7411 17.5827 55.9965 17.5818ZM55.9965 21.6758C55.7423 21.6759 55.4937 21.6006 55.2823 21.4594C55.0709 21.3182 54.906 21.1175 54.8087 20.8827C54.7113 20.6479 54.6858 20.3894 54.7353 20.1401C54.7849 19.8907 54.9072 19.6617 55.087 19.4819C55.2667 19.3021 55.4957 19.1796 55.745 19.13C55.9944 19.0803 56.2528 19.1057 56.4877 19.203C56.7226 19.3003 56.9234 19.465 57.0646 19.6764C57.2059 19.8878 57.2812 20.1363 57.2812 20.3905C57.281 20.7312 57.1456 21.0579 56.9047 21.2989C56.6638 21.5399 56.3372 21.6755 55.9965 21.6759V21.6758Z" fill="#BEAD8E"/>
<path d="M23.3568 10.7023C24.0113 10.7025 24.6511 10.5087 25.1954 10.1453C25.7397 9.78195 26.164 9.2653 26.4146 8.66075C26.6652 8.0562 26.731 7.39089 26.6035 6.74899C26.4759 6.10708 26.1609 5.5174 25.6983 5.05454C25.2356 4.59168 24.6461 4.27642 24.0042 4.14864C23.3624 4.02086 22.697 4.0863 22.0924 4.33668C21.4877 4.58707 20.9709 5.01115 20.6073 5.55528C20.2436 6.09942 20.0496 6.73917 20.0496 7.39362C20.0503 8.27065 20.399 9.11156 21.019 9.73184C21.639 10.3521 22.4798 10.7011 23.3568 10.7023ZM23.3568 5.6084C23.71 5.60812 24.0552 5.71259 24.349 5.90858C24.6428 6.10458 24.8718 6.38329 25.0071 6.70948C25.1425 7.03566 25.178 7.39465 25.1093 7.74104C25.0406 8.08743 24.8707 8.40565 24.621 8.65546C24.3714 8.90527 24.0533 9.07543 23.707 9.14443C23.3607 9.21342 23.0016 9.17815 22.6754 9.04307C22.3491 8.908 22.0702 8.67918 21.874 8.38557C21.6777 8.09197 21.573 7.74676 21.573 7.39362C21.5733 6.92049 21.7613 6.46682 22.0958 6.13214C22.4302 5.79746 22.8837 5.60911 23.3568 5.6084Z" fill="#BEAD8E"/>
<path d="M36.1436 29.9294C36.1433 29.2753 35.9491 28.6361 35.5855 28.0924C35.2219 27.5487 34.7053 27.125 34.101 26.8749C33.4966 26.6248 32.8317 26.5595 32.1902 26.6873C31.5488 26.815 30.9596 27.1301 30.4972 27.5927C30.0348 28.0553 29.72 28.6446 29.5925 29.2861C29.465 29.9276 29.5306 30.5925 29.7809 31.1967C30.0313 31.801 30.4552 32.3174 30.999 32.6808C31.5429 33.0441 32.1823 33.238 32.8363 33.238C33.7133 33.2369 34.5541 32.8879 35.1741 32.2676C35.7941 31.6473 36.1428 30.8064 36.1436 29.9294ZM32.8363 31.7146C32.4832 31.7149 32.1379 31.6104 31.8441 31.4144C31.5504 31.2184 31.3213 30.9397 31.186 30.6135C31.0507 30.2874 31.0151 29.9284 31.0838 29.582C31.1526 29.2356 31.3225 28.9174 31.5721 28.6676C31.8217 28.4177 32.1398 28.2476 32.4861 28.1786C32.8325 28.1096 33.1915 28.1449 33.5178 28.2799C33.844 28.415 34.1229 28.6438 34.3192 28.9374C34.5154 29.231 34.6201 29.5763 34.6201 29.9294C34.6198 30.4026 34.4318 30.8563 34.0973 31.191C33.7628 31.5256 33.3092 31.714 32.8361 31.7146H32.8363Z" fill="#BEAD8E"/>
<path d="M10.9996 21.0382C11.6541 21.0385 12.2939 20.8447 12.8382 20.4813C13.3825 20.1179 13.8068 19.6012 14.0574 18.9967C14.3081 18.3921 14.3738 17.7268 14.2463 17.0849C14.1188 16.443 13.8038 15.8533 13.3411 15.3905C12.8784 14.9276 12.2889 14.6124 11.647 14.4846C11.0052 14.3568 10.3398 14.4222 9.73519 14.6726C9.13053 14.923 8.61371 15.3471 8.25009 15.8912C7.88647 16.4354 7.69238 17.0751 7.69238 17.7296C7.69319 18.6066 8.04185 19.4475 8.66186 20.0677C9.28188 20.688 10.1226 21.037 10.9996 21.0382ZM10.9996 15.9443C11.3528 15.9441 11.6981 16.0485 11.9918 16.2445C12.2856 16.4405 12.5146 16.7192 12.65 17.0454C12.7853 17.3716 12.8208 17.7306 12.7521 18.077C12.6834 18.4234 12.5135 18.7416 12.2639 18.9914C12.0143 19.2412 11.6962 19.4114 11.3498 19.4804C11.0035 19.5494 10.6445 19.5141 10.3182 19.379C9.9919 19.2439 9.713 19.0151 9.51678 18.7215C9.32056 18.4279 9.21582 18.0827 9.21582 17.7296C9.21616 17.2564 9.40416 16.8028 9.73857 16.4681C10.073 16.1334 10.5265 15.945 10.9996 15.9443Z" fill="#BEAD8E"/>
<path d="M60.8004 20.2031C60.6371 17.6895 58.5833 15.7208 56.125 15.7208C54.9889 15.7232 53.8938 16.1454 53.0502 16.9063C50.5541 14.4679 47.4377 12.3676 43.988 10.8063C40.0764 9.03595 36.0096 8.10018 32.2275 8.10018C31.1842 8.10968 30.1422 8.17435 29.1057 8.29391C29.1577 7.92254 29.1714 7.54683 29.1468 7.17266C28.9498 4.14279 26.4768 1.76953 23.5167 1.76953C20.5567 1.76953 18.0831 4.14279 17.8866 7.17139C17.816 8.55755 18.2338 9.92458 19.0673 11.0344L19.2246 11.2448C17.8308 12.0334 16.488 12.9087 15.204 13.8656C14.6853 13.3121 14.059 12.8705 13.3634 12.5678C12.6679 12.2651 11.9178 12.1078 11.1592 12.1055C8.19908 12.1055 5.72565 14.4796 5.52925 17.5074C5.45873 18.8936 5.87652 20.2606 6.70992 21.3706L7.61801 22.585C5.46616 26.7234 4.18952 31.7627 4.18952 36.1653C4.18167 39.8524 4.90111 43.5047 6.30664 46.9133C7.71217 50.322 9.77619 53.4199 12.3805 56.0298C14.9849 58.6397 18.0784 60.7103 21.4841 62.1231C24.8897 63.5359 28.5405 64.2631 32.2276 64.2631C35.9146 64.2631 39.5654 63.5359 42.971 62.1231C46.3767 60.7103 49.4702 58.6397 52.0746 56.0298C54.6789 53.4199 56.7429 50.322 58.1485 46.9133C59.554 43.5047 60.2734 39.8524 60.2656 36.1653C60.2656 33.0405 59.4697 28.3543 58.4302 25.2669L59.8213 23.407C60.5204 22.4906 60.8678 21.3538 60.8004 20.2031ZM19.4068 7.27143C19.5337 5.31635 21.106 3.29297 23.5167 3.29297C25.9274 3.29297 27.4994 5.31584 27.6267 7.27346C27.6833 8.29783 27.3708 9.30855 26.746 10.1223L23.5167 14.4419L20.2929 10.1298C19.6728 9.30972 19.3593 8.29846 19.4068 7.27143ZM7.04977 17.6074C7.17672 15.6524 8.74891 13.629 11.1596 13.629C13.5703 13.629 15.1424 15.6519 15.2696 17.6096C15.3263 18.6339 15.0138 19.6447 14.3889 20.4583L11.1592 24.7779L7.93578 20.4658C7.31569 19.6457 7.00223 18.6345 7.04977 17.6074ZM8.63948 23.9513L10.5499 26.5061C10.6208 26.601 10.7129 26.678 10.8188 26.731C10.9247 26.7841 11.0415 26.8117 11.1599 26.8117C11.2784 26.8117 11.3952 26.7841 11.5011 26.731C11.607 26.678 11.6991 26.601 11.77 26.5061L15.6086 21.3711C16.2883 20.4852 16.6964 19.4211 16.7832 18.3079C16.8701 17.1947 16.6319 16.0801 16.0977 15.0996C17.388 14.1372 18.7404 13.261 20.146 12.4768L22.9068 16.1696C22.9778 16.2644 23.0698 16.3415 23.1758 16.3945C23.2817 16.4476 23.3985 16.4752 23.5169 16.4752C23.6354 16.4752 23.7522 16.4476 23.8581 16.3945C23.964 16.3415 24.0561 16.2644 24.127 16.1696L27.9658 11.0347C28.2341 10.6772 28.4622 10.2912 28.6461 9.88387C28.9626 9.84337 29.2789 9.80554 29.5907 9.77393L32.7899 14.3894C33.1605 14.9218 33.3516 15.5586 33.3352 16.2071C33.3189 16.8555 33.096 17.4819 32.699 17.9949L31.7953 19.1683C31.5749 19.4535 31.2839 19.6763 30.951 19.8147C30.6181 19.9531 30.2549 20.0023 29.8973 19.9575L28.8722 19.8265C28.15 19.7338 27.4164 19.8555 26.7627 20.1764C26.1091 20.4973 25.5642 21.0033 25.1958 21.6315C24.9883 21.9853 24.6815 22.2704 24.3134 22.4513C23.9452 22.6323 23.5321 22.7011 23.1252 22.6493L20.7585 22.3484C20.0507 22.2563 19.3312 22.3634 18.6808 22.6577C18.0305 22.9519 17.4751 23.4217 17.0769 24.0141C16.7043 24.5645 16.5005 25.2116 16.4902 25.8762C16.48 26.5407 16.6638 27.1938 17.0193 27.7554L18.5827 30.2266C18.8708 30.6793 19.2687 31.0519 19.7394 31.3097C20.21 31.5675 20.7382 31.7022 21.2749 31.7013C21.7948 31.7017 22.3067 31.5732 22.7648 31.3274L24.3746 30.4641C25.1632 30.0412 26.4439 30.037 27.367 30.4174C27.4551 31.5582 27.8639 32.651 28.5462 33.5695L32.3858 38.706C32.4567 38.8009 32.5488 38.8779 32.6547 38.931C32.7606 38.984 32.8774 39.0117 32.9959 39.0117C33.1143 39.0117 33.2311 38.984 33.337 38.931C33.443 38.8779 33.535 38.8009 33.6059 38.706L35.5533 36.1012L35.8008 36.4404C35.9057 36.5867 36.0181 36.7306 36.135 36.8683L38.0901 39.1709C38.1772 39.2736 38.2426 39.3928 38.2822 39.5215C38.3219 39.6501 38.3351 39.7854 38.3209 39.9193C38.3067 40.0532 38.2655 40.1828 38.1997 40.3003C38.134 40.4177 38.0451 40.5206 37.9384 40.6027L34.9756 42.8809C34.1871 43.4848 33.6071 44.32 33.3165 45.2698L32.3289 48.4756C32.2513 48.7284 32.1243 48.9634 31.9552 49.1667L30.9943 50.3235C30.2785 51.1835 29.8353 52.2375 29.7214 53.3506C29.6936 53.6213 29.5934 53.8795 29.4314 54.0981C29.2694 54.3167 29.0515 54.4877 28.8006 54.5931C28.6955 54.6371 28.5817 54.6567 28.4679 54.6506C28.3541 54.6444 28.2431 54.6125 28.1433 54.5573C28.0436 54.5021 27.9576 54.4251 27.8918 54.3319C27.8261 54.2388 27.7823 54.132 27.7637 54.0195L26.8585 48.5835C26.7455 47.908 26.4698 47.2701 26.0552 46.7249L22.739 42.3728C22.4411 41.9825 22.2208 41.5386 22.09 41.0652L20.9956 37.1133C20.8021 36.4209 20.4328 35.7903 19.9236 35.2827C19.4144 34.7752 18.7825 34.408 18.0895 34.2168L17.8516 34.152C17.3701 34.0201 16.9283 33.7723 16.5648 33.4302L14.5235 31.5064C14.1983 31.2002 13.9194 30.8484 13.6954 30.462C13.2204 29.6429 12.5014 28.9927 11.6389 28.6021C10.7765 28.2115 9.81354 28.1 8.88462 28.2832C8.85486 28.289 8.82548 28.2967 8.79665 28.306L6.7513 28.9714C7.22848 27.2447 7.86044 25.5645 8.63948 23.9513ZM28.8862 29.8074C29.0132 27.8523 30.5854 25.8289 32.9961 25.8289C35.4068 25.8289 36.9788 27.8518 37.106 29.8095C37.1627 30.8339 36.8503 31.8446 36.2254 32.6582L32.9961 36.9778L29.7722 32.6657C29.1521 31.8457 28.8387 30.8344 28.8862 29.8074ZM58.7422 36.1653C58.7422 50.8005 46.8477 62.707 32.2275 62.707C17.6073 62.707 5.71295 50.8005 5.71295 36.1653C5.72539 34.3314 5.92997 32.5038 6.32334 30.7126L9.22206 29.7697C9.83409 29.6581 10.4656 29.7381 11.0305 29.9988C11.5953 30.2596 12.0659 30.6883 12.378 31.2265C12.6759 31.7402 13.0469 32.2081 13.4792 32.6153L15.5206 34.5385C16.0661 35.0515 16.7289 35.4231 17.451 35.6211L17.6889 35.6858C18.1275 35.807 18.5272 36.0395 18.8494 36.3608C19.1715 36.6822 19.4051 37.0813 19.5274 37.5195L20.6218 41.4721C20.8041 42.1326 21.1115 42.7521 21.5272 43.2968L24.8434 47.649C25.1079 47.9967 25.2837 48.4036 25.3558 48.8345L26.261 54.2705C26.3167 54.61 26.4487 54.9324 26.6471 55.2135C26.8455 55.4946 27.105 55.727 27.4062 55.8933C27.7074 56.0596 28.0424 56.1555 28.3859 56.1736C28.7295 56.1917 29.0727 56.1317 29.3897 55.9981C29.8928 55.787 30.3297 55.4443 30.6546 55.0061C30.9795 54.5678 31.1804 54.0502 31.2362 53.5075C31.3194 52.6946 31.643 51.925 32.1657 51.2969L33.1266 50.1401C33.4243 49.7823 33.6479 49.3689 33.7844 48.9239L34.7716 45.718C34.9698 45.0703 35.3653 44.5007 35.903 44.0888L38.867 41.8105C39.1373 41.6027 39.3625 41.3422 39.5291 41.0447C39.6957 40.7473 39.8001 40.4191 39.8361 40.08C39.8721 39.741 39.8388 39.3982 39.7383 39.0724C39.6378 38.7466 39.4722 38.4446 39.2516 38.1848L37.2965 35.8821C37.2066 35.7762 37.1201 35.6655 37.036 35.5481L36.5082 34.8244L37.4453 33.5712C38.2881 32.4663 38.707 31.0959 38.6259 29.7086C38.429 26.6788 35.956 24.3055 32.9958 24.3055C30.3209 24.3055 28.0446 26.2437 27.4849 28.8518C26.2196 28.4788 24.7046 28.5598 23.6547 29.1225L22.045 29.9858C21.6769 30.1814 21.2486 30.2311 20.8455 30.1249C20.4424 30.0187 20.0942 29.7645 19.8703 29.4129L18.3067 26.9417C18.1098 26.6305 18.0079 26.2686 18.0135 25.9004C18.0192 25.5322 18.1322 25.1736 18.3386 24.8687C18.5795 24.5101 18.9156 24.2258 19.3091 24.0477C19.7027 23.8697 20.1381 23.8048 20.5665 23.8605L22.9331 24.1613C23.6358 24.2511 24.3494 24.1325 24.9852 23.8201C25.621 23.5076 26.151 23.0153 26.5093 22.4041C26.7264 22.0331 27.048 21.7341 27.4338 21.5445C27.8196 21.3549 28.2527 21.283 28.6792 21.3377L29.704 21.4687C30.3256 21.5467 30.9567 21.4612 31.5351 21.2208C32.1136 20.9803 32.6193 20.5932 33.0024 20.0976L33.9061 18.9242C34.5011 18.1555 34.8351 17.2168 34.8596 16.245C34.884 15.2733 34.5976 14.319 34.042 13.5213L31.3537 9.64393C31.6618 9.63123 31.9551 9.62361 32.2275 9.62361C35.7949 9.62361 39.6441 10.5123 43.3599 12.1943C44.524 12.7226 45.6554 13.3203 46.7479 13.9843L44.7016 17.4917C44.4083 18.0064 44.2825 18.5996 44.3417 19.1891C44.4008 19.7785 44.642 20.335 45.0317 20.7811C45.6197 21.4546 46.4356 21.8874 47.323 21.9963L47.6941 22.042C48.0532 22.0866 48.3917 22.2344 48.6685 22.4676C48.9453 22.7007 49.1484 23.0092 49.2533 23.3556C49.3525 23.6847 49.3554 24.0353 49.2617 24.366C49.168 24.6967 48.9816 24.9937 48.7245 25.2218L45.05 28.4708C44.6776 28.8004 44.3793 29.2053 44.175 29.6587C43.9708 30.1122 43.8651 30.6038 43.865 31.1012V31.9633C43.8639 32.4742 43.9913 32.9772 44.2356 33.4259C44.4799 33.8746 44.8332 34.2546 45.2629 34.5309C45.4766 34.6683 45.6563 34.8522 45.7887 35.069C45.921 35.2857 46.0026 35.5296 46.0272 35.7824L46.1131 36.6432C46.1804 37.34 46.5053 37.9867 47.0242 38.4567C47.5431 38.9267 48.2187 39.1862 48.9188 39.1844H51.0695C51.9605 39.1841 52.8321 38.9244 53.5779 38.4369C54.3237 37.9494 54.9113 37.2553 55.2691 36.4393L55.3983 36.1446C55.525 35.8525 55.7313 35.602 55.9937 35.4217C56.2562 35.2414 56.5641 35.1387 56.8822 35.1253L57.3868 35.1025C57.4689 35.0988 57.5508 35.0929 57.6326 35.0846L58.7055 34.9765C58.7293 35.3938 58.7422 35.793 58.7422 36.1653ZM58.579 33.457L57.48 33.5676C57.4264 33.5731 57.3726 33.5769 57.3182 33.5794L56.8129 33.6024C56.2105 33.6277 55.6275 33.8221 55.1306 34.1634C54.6337 34.5046 54.2429 34.979 54.0031 35.5321L53.8739 35.8267C53.635 36.3717 53.2426 36.8353 52.7446 37.1609C52.2466 37.4866 51.6645 37.6601 51.0695 37.6603H48.9185C48.5966 37.661 48.2859 37.5416 48.0474 37.3253C47.8088 37.1091 47.6595 36.8117 47.6287 36.4912L47.5426 35.6303C47.4959 35.1496 47.3408 34.6858 47.089 34.2736C46.8373 33.8614 46.4953 33.5117 46.089 33.2506C45.8735 33.112 45.6963 32.9213 45.5738 32.6963C45.4514 32.4712 45.3875 32.2189 45.3881 31.9627V31.1005C45.3881 30.819 45.4479 30.5407 45.5635 30.284C45.6791 30.0273 45.8479 29.7981 46.0588 29.6115L49.7333 26.3625C50.2083 25.9409 50.5527 25.3922 50.7259 24.7811C50.8992 24.1701 50.8939 23.5222 50.7108 22.9141C50.5204 22.2853 50.1515 21.7253 49.6489 21.3021C49.1464 20.8788 48.5318 20.6105 47.8798 20.5298L47.5087 20.4841C46.9933 20.4208 46.5195 20.1695 46.178 19.7783C45.9971 19.5716 45.8848 19.3138 45.8567 19.0405C45.8285 18.7672 45.8859 18.4919 46.0209 18.2526L48.0318 14.806C49.4809 15.7761 50.838 16.8773 52.0858 18.0957C51.7149 18.7401 51.4973 19.4612 51.4497 20.2031C51.3908 21.3529 51.7371 22.4868 52.4283 23.4075L55.515 27.535C55.5859 27.6299 55.678 27.7069 55.7839 27.7599C55.8898 27.813 56.0066 27.8406 56.125 27.8406C56.2435 27.8406 56.3603 27.813 56.4661 27.7599C56.572 27.7069 56.6641 27.6299 56.735 27.535L57.3026 26.776C57.9089 28.9646 58.3358 31.199 58.579 33.457ZM58.6017 22.4937L56.125 25.8056L53.6539 22.501C53.176 21.8703 52.934 21.0921 52.9699 20.3016C53.0676 18.7985 54.2746 17.2438 56.125 17.2438C57.9755 17.2438 59.1826 18.7985 59.2803 20.3034C59.3236 21.0913 59.0827 21.8685 58.6016 22.4939L58.6017 22.4937Z" fill="#BEAD8E"/>
</svg>
