<svg width="65" height="66" viewBox="0 0 65 66" fill="none" xmlns="http://www.w3.org/2000/svg">
<g clip-path="url(#clip0_21_286)">
<path d="M57.6705 14.1613L53.8182 13.6014L52.0954 10.1107C51.5142 8.93193 49.8321 8.93242 49.2504 10.1107L47.5276 13.6014L43.6754 14.1613C42.3751 14.3502 41.8554 15.9496 42.7961 16.867L45.5836 19.5841L44.9256 23.4209C44.7029 24.7212 46.0691 25.7021 47.2276 25.0932L50.6732 23.2816L54.1188 25.0932C55.2812 25.7046 56.6424 24.7168 56.4203 23.4209L55.7622 19.5841L58.5497 16.867C59.491 15.9496 58.9712 14.3502 57.6705 14.1613ZM54.3132 18.3374C53.9392 18.7019 53.7691 19.2265 53.8569 19.7413L54.4347 23.1075L51.4111 21.5181C50.9494 21.2751 50.3969 21.2751 49.9348 21.5181L46.9117 23.1075L47.4889 19.7408C47.5772 19.2265 47.4066 18.7019 47.0327 18.3374L44.5869 15.953L47.967 15.4621C48.4837 15.3867 48.93 15.0624 49.1611 14.5942L50.6727 11.5315L52.1842 14.5942C52.4153 15.0624 52.8621 15.3867 53.3789 15.4621L56.759 15.953L54.3132 18.3374Z" fill="#BEAD8E"/>
<path d="M7.00565 10.1108L5.28286 13.6015L1.43063 14.1614C0.129854 14.3503 -0.389365 15.9496 0.551378 16.8671L3.33889 19.5841L2.68082 23.4205C2.45766 24.7208 3.82439 25.7022 4.98234 25.0932L8.42842 23.2817L11.874 25.0932C13.0364 25.7052 14.3977 24.7158 14.1755 23.421L13.5175 19.5841L16.305 16.8671C17.2462 15.9496 16.726 14.3498 15.4257 14.1609L11.5735 13.601L9.85069 10.1103C9.26899 8.93199 7.58736 8.93248 7.00565 10.1108ZM9.93996 14.5943C10.1711 15.0624 10.6179 15.3868 11.1346 15.4621L14.5142 15.9531L12.0689 18.3369C11.6945 18.7019 11.5239 19.2266 11.6122 19.7413L12.1894 23.1076L9.16634 21.5187C8.70415 21.2757 8.1522 21.2752 7.69001 21.5187L4.66644 23.1081L5.24418 19.7418C5.33245 19.2271 5.16186 18.7024 4.78794 18.3374L2.34211 15.9536L5.72174 15.4621C6.23848 15.3873 6.68529 15.0629 6.91639 14.5943L8.42793 11.5316L9.93996 14.5943Z" fill="#BEAD8E"/>
<path d="M13.1153 61.1959C13.1153 61.4468 12.9115 61.6511 12.6606 61.6511H9.73175C9.20559 61.6511 8.7796 62.0771 8.7796 62.6032C8.7796 63.1289 9.20559 63.5554 9.73175 63.5554H12.6606C13.823 63.5554 14.79 62.7089 14.9825 61.6005L15.6564 61.6H15.6584C18.9825 61.6 18.8863 65.5004 24.137 65.4999H24.1459H40.8437C42.8685 65.4999 44.5159 63.8524 44.5159 61.8276C44.5159 60.8666 44.145 59.9908 43.5385 59.3357C44.4296 58.6875 45.0257 57.6635 45.0644 56.513C45.0956 55.5712 44.7758 54.6766 44.1613 53.9739C45.1145 53.3307 45.7592 52.2685 45.7978 51.0699C45.8326 50.0041 45.419 49.0128 44.6667 48.2833C47.2851 46.0909 45.7418 41.7973 42.3111 41.7973C42.3106 41.7973 42.3091 41.7973 42.3086 41.7973H31.6525C33.2255 36.9944 33.1779 37.3842 33.1779 31.7522C33.1779 29.4526 31.3068 27.5815 29.0073 27.5815C26.9235 27.5815 25.1461 29.1397 24.8734 31.2057C24.189 36.3785 23.3619 36.9156 19.7715 40.3731C18.793 41.3153 17.5056 41.8345 16.1473 41.8345H14.8942C14.5788 40.9027 13.6975 40.2292 12.6606 40.2292H2.35954C1.05827 40.2292 0 41.2875 0 42.5888V61.1964C0 62.4971 1.05827 63.5554 2.35954 63.5554H5.2879C5.81406 63.5554 6.24004 63.1294 6.24004 62.6032C6.24004 62.0776 5.81406 61.6511 5.2879 61.6511H2.35954C2.10861 61.6511 1.9043 61.4473 1.9043 61.1964V42.5883C1.9043 42.3374 2.10861 42.1335 2.35954 42.1335H12.6606C12.9115 42.1335 13.1153 42.3374 13.1153 42.5883V61.1959ZM15.0196 43.7383H16.1469C18.0006 43.7383 19.7571 43.0302 21.0921 41.7448C24.8843 38.0934 25.9996 37.2161 26.7608 31.4551C26.9091 30.3324 27.8746 29.4858 29.0073 29.4858C30.2565 29.4858 31.2731 30.5025 31.2731 31.7517C31.2731 37.3078 31.3693 36.5426 29.6326 41.8439C29.3331 42.7584 30.016 43.7011 30.9785 43.7011H42.3091H42.3106C43.2866 43.7011 44.0805 44.4911 44.0815 45.4631C44.082 46.4395 43.288 47.235 42.3126 47.2355C40.6181 47.237 44.872 47.2365 37.7562 47.2365C37.2305 47.2365 36.804 47.6629 36.804 48.1886C36.804 48.7148 37.2305 49.1408 37.7562 49.1408H42.0825H42.085H42.0869C43.1026 49.1408 43.9273 49.9893 43.894 51.0079C43.8638 51.9496 43.0391 52.7163 42.0552 52.7163C39.8578 52.7163 42.7168 52.7173 37.7562 52.7173C37.2305 52.7173 36.804 53.1438 36.804 53.6694C36.804 54.1951 37.2305 54.6216 37.7562 54.6216C44.3399 54.6216 38.9796 54.6206 41.3942 54.6206C42.384 54.6206 43.1943 55.4363 43.1606 56.4495C43.1293 57.3902 42.3046 58.1559 41.3227 58.1559C41.3227 58.1559 41.2022 58.1569 37.7562 58.1569C37.23 58.1569 36.804 58.5834 36.804 59.1091C36.804 59.6352 37.23 60.0612 37.7562 60.0612H40.8655C41.8301 60.0731 42.6111 60.8606 42.6111 61.8281C42.6111 62.8026 41.8182 63.5956 40.8437 63.5956H24.1454C24.1424 63.5956 24.1399 63.5956 24.1375 63.5956C19.712 63.5956 20.1117 59.6957 15.6599 59.6957C15.6584 59.6957 15.6569 59.6957 15.6559 59.6957L15.0196 59.6962V43.7383Z" fill="#BEAD8E"/>
<path d="M37.176 13.768C36.7996 14.135 36.7921 14.738 37.1591 15.1144C37.5266 15.4913 38.1291 15.4988 38.5055 15.1318L41.8767 11.8459C43.05 10.7018 42.4019 8.70775 40.7807 8.4722L34.2843 7.52848C34.2605 7.52501 34.2397 7.51013 34.2293 7.48831L31.3242 1.60185C30.5992 0.132468 28.502 0.132964 27.7775 1.60185L24.8719 7.48831C24.8615 7.51013 24.8407 7.52501 24.8169 7.52848L18.3205 8.4722C16.6993 8.70825 16.0517 10.7023 17.2245 11.8459L21.9252 16.4276C21.9426 16.4445 21.9505 16.4688 21.9466 16.4926L20.8367 22.9627C20.5585 24.5833 22.262 25.8068 23.706 25.0475L29.5166 21.9927C29.538 21.9818 29.5632 21.9813 29.5846 21.9927L35.3952 25.0475C36.8447 25.8097 38.5417 24.5774 38.2645 22.9627L37.539 18.7331C37.4502 18.2144 36.9573 17.8657 36.44 17.955C35.9213 18.0443 35.5732 18.5362 35.6625 19.0549L36.388 23.2845C36.3909 23.3034 36.3954 23.3297 36.3587 23.3565C36.322 23.3827 36.2987 23.3708 36.2818 23.3619L30.4713 20.3071C29.895 20.0041 29.2067 20.0041 28.6304 20.3071L22.8199 23.3619C22.803 23.3708 22.7797 23.3827 22.743 23.3565C22.7063 23.3297 22.7108 23.3034 22.7137 23.2845L23.8236 16.8149C23.9337 16.1732 23.7214 15.5186 23.2548 15.0643L18.554 10.4821C18.5406 10.4687 18.5213 10.4504 18.5357 10.4072C18.5496 10.3636 18.5758 10.3601 18.5947 10.3572L25.0911 9.41343C25.7353 9.31971 26.2917 8.91504 26.5803 8.33136L29.4854 2.4444C29.4938 2.42754 29.5057 2.40374 29.5508 2.40374C29.5965 2.40374 29.6079 2.42754 29.6168 2.4444L32.5218 8.33086C32.81 8.91504 33.3664 9.31971 34.0111 9.41294L40.5075 10.3572C40.5263 10.3596 40.5521 10.3636 40.5665 10.4067C40.5804 10.4504 40.5616 10.4687 40.5482 10.4821L37.176 13.768Z" fill="#BEAD8E"/>
</g>
<defs>
<clipPath id="clip0_21_286">
<rect width="65" height="65" fill="white" transform="translate(0 0.5)"/>
</clipPath>
</defs>
</svg>
