<?xml version="1.0" encoding="iso-8859-1"?>
<!-- Generator: Adobe Illustrator 18.0.0, SVG Export Plug-In . SVG Version: 6.00 Build 0)  -->
<!DOCTYPE svg PUBLIC "-//W3C//DTD SVG 1.1//EN" "http://www.w3.org/Graphics/SVG/1.1/DTD/svg11.dtd">
<svg version="1.1" id="Capa_1" xmlns="http://www.w3.org/2000/svg" xmlns:xlink="http://www.w3.org/1999/xlink" x="10px" y="10px" width="30px" height="30px" fill="#DE5777"
	 viewBox="0 0 447.514 447.514" style="enable-background:new 0 0 447.514 447.514;" xml:space="preserve">
<path d="M389.183,10.118c-3.536-2.215-7.963-2.455-11.718-0.634l-50.653,24.559c-35.906,17.409-77.917,16.884-113.377-1.418
	c-38.094-19.662-83.542-18.72-120.789,2.487V20c0-11.046-8.954-20-20-20s-20,8.954-20,20v407.514c0,11.046,8.954,20,20,20
	s20-8.954,20-20V220.861c37.246-21.207,82.694-22.148,120.789-2.487c35.46,18.302,77.47,18.827,113.377,1.418l56.059-27.18
	c7.336-3.557,11.995-10.993,11.995-19.146V20.385C394.866,16.212,392.719,12.333,389.183,10.118z"/>
<g>
</g>
<g>
</g>
<g>
</g>
<g>
</g>
<g>
</g>
<g>
</g>
<g>
</g>
<g>
</g>
<g>
</g>
<g>
</g>
<g>
</g>
<g>
</g>
<g>
</g>
<g>
</g>
<g>
</g>
</svg>
