<svg width="40" height="40" viewBox="0 0 40 40" fill="none" xmlns="http://www.w3.org/2000/svg">
<g clip-path="url(#clip0_14_803)">
<path d="M38.9504 30.8578L30.8542 25.4586C29.8268 24.779 28.4496 25.0026 27.69 25.9725L25.3317 29.0048C25.0286 29.4044 24.4777 29.5203 24.0392 29.2767L23.5906 29.0294C22.1035 28.2189 20.2531 27.2097 16.525 23.4803C12.7969 19.7508 11.7857 17.8991 10.9751 16.4147L10.7292 15.9661C10.4823 15.5277 10.596 14.9744 10.9958 14.6689L14.0259 12.3113C14.9955 11.5516 15.2194 10.1748 14.5406 9.14708L9.14136 1.05094C8.4456 0.00437674 7.04971 -0.309795 5.97261 0.337687L2.58709 2.37137C1.52334 2.99674 0.742912 4.00956 0.409446 5.19759C-0.809671 9.63959 0.107458 17.3058 11.4005 28.6001C20.3838 37.5828 27.0715 39.9984 31.6682 39.9984C32.7261 40.003 33.7798 39.8653 34.8011 39.5892C35.9893 39.2561 37.0023 38.4756 37.6273 37.4116L39.663 34.0281C40.3114 32.9507 39.9974 31.554 38.9504 30.8578ZM38.5144 33.3441L36.4834 36.7296C36.0346 37.4976 35.3061 38.0623 34.4503 38.3054C30.3496 39.4313 23.1854 38.4987 12.3436 27.657C1.50186 16.8152 0.569422 9.65162 1.69527 5.55027C1.93867 4.69352 2.50406 3.96402 3.27301 3.51456L6.65852 1.48353C7.12587 1.20232 7.73172 1.33863 8.03363 1.79278L10.9666 6.19611L13.4282 9.88822C13.723 10.334 13.6262 10.9315 13.2056 11.2614L10.1747 13.619C9.25235 14.3243 8.98896 15.6004 9.55684 16.6132L9.79751 17.0505C10.6494 18.6129 11.7086 20.5566 15.5753 24.4228C19.4421 28.2888 21.3852 29.3481 22.9469 30.1999L23.3848 30.4412C24.3975 31.009 25.6738 30.7457 26.379 29.8233L28.7367 26.7924C29.0666 26.3721 29.6639 26.2753 30.1098 26.5698L38.2053 31.969C38.6597 32.2707 38.796 32.8768 38.5144 33.3441Z" fill="#BEAD8E"/>
<path d="M22.6654 6.66994C28.9208 6.67689 33.9901 11.7462 33.9971 18.0016C33.9971 18.3698 34.2955 18.6681 34.6637 18.6681C35.0318 18.6681 35.3302 18.3698 35.3302 18.0016C35.3225 11.0102 29.6568 5.34451 22.6654 5.33685C22.2973 5.33685 21.9989 5.63525 21.9989 6.00339C21.9989 6.37154 22.2973 6.66994 22.6654 6.66994Z" fill="#BEAD8E"/>
<path d="M22.6654 10.6695C26.713 10.6743 29.993 13.9543 29.9977 18.0018C29.9977 18.3699 30.2962 18.6683 30.6643 18.6683C31.0324 18.6683 31.3308 18.3699 31.3308 18.0018C31.3253 13.2183 27.4489 9.34189 22.6654 9.33643C22.2973 9.33643 21.9989 9.63482 21.9989 10.003C21.9989 10.3711 22.2973 10.6695 22.6654 10.6695Z" fill="#BEAD8E"/>
<path d="M22.6654 14.6689C24.5052 14.6711 25.996 16.162 25.9983 18.0018C25.9983 18.3699 26.2968 18.6683 26.6648 18.6683C27.0329 18.6683 27.3314 18.3699 27.3314 18.0018C27.3284 15.4261 25.2412 13.3387 22.6654 13.3358C22.2973 13.3358 21.9989 13.6342 21.9989 14.0024C21.9989 14.3705 22.2973 14.6689 22.6654 14.6689Z" fill="#BEAD8E"/>
</g>
<defs>
<clipPath id="clip0_14_803">
<rect width="40" height="40" fill="white"/>
</clipPath>
</defs>
</svg>
