<svg width="16" height="17" viewBox="0 0 16 17" fill="none" xmlns="http://www.w3.org/2000/svg">
<path d="M16 9.42918C16 8.89993 15.7104 8.42309 15.2442 8.18471C14.7688 7.94159 14.1532 7.81831 13.4146 7.81831H5.38572C5.32791 7.52981 5.19981 7.26768 5.00766 7.05409L3.86906 5.78837C3.58731 5.47515 3.18244 5.28496 2.72906 5.2529L2.52453 5.23843C2.41981 5.2309 2.31341 5.24568 2.21128 5.27993V4.61084C2.21128 4.37646 2.11256 4.16481 1.95475 4.01484C2.11478 3.82303 2.21128 3.5764 2.21128 3.30765C2.21128 2.698 1.71528 2.20203 1.10566 2.20203C0.496031 2.20203 0 2.69803 0 3.30768C0 3.57646 0.0965 3.82306 0.256531 4.01487C0.0987187 4.16487 0 4.3765 0 4.61087V14.5856C0 14.7582 0.139906 14.8981 0.3125 14.8981H1.39109C1.55228 14.8981 1.68703 14.7755 1.70222 14.615C1.73944 14.2215 1.94753 13.1407 2.46309 12.6561H3.29988C3.47247 12.6561 3.61238 12.5161 3.61238 12.3436C3.61238 12.171 3.47247 12.0311 3.29988 12.0311L0.624969 12.031V9.2799L4.79609 9.27981V10.0942C4.79609 10.576 5.18806 10.968 5.66991 10.968H5.66997H15.1262C15.2101 10.968 15.2946 10.9558 15.375 10.9319V12.0311H13.6529C13.6527 12.0311 13.6524 12.0311 13.6521 12.0311H6.04956C5.87697 12.0311 5.73706 12.171 5.73706 12.3436C5.73706 12.5162 5.87697 12.6561 6.04956 12.6561H13.5369C14.0504 13.1394 14.2599 14.2212 14.2978 14.615C14.313 14.7755 14.4477 14.8981 14.6089 14.8981H15.6875C15.8601 14.8981 16 14.7582 16 14.5856V9.42918ZM2.21203 6.30171C2.21669 6.16856 2.19844 6.03096 2.30816 5.93306C2.41853 5.83456 2.55094 5.86684 2.68494 5.87634C2.98019 5.89725 3.22897 6.01134 3.40438 6.20637L4.54297 7.47212C4.72753 7.67725 4.81606 7.96318 4.79222 8.27715C4.78306 8.39803 4.78525 8.50518 4.68337 8.59046C4.59028 8.6684 4.48925 8.65387 4.37719 8.65053C4.06244 8.64109 3.78747 8.5229 3.60291 8.31775L2.46431 7.05203C2.28016 6.84725 2.20253 6.57359 2.21203 6.30171ZM0.625 8.65487V4.61087C0.625 4.50193 0.713625 4.41331 0.822563 4.41331H1.38866C1.49759 4.41331 1.58622 4.50193 1.58622 4.61087V8.65484H0.625V8.65487ZM2.21125 7.70515L3.06556 8.65487H2.21125V7.70515ZM1.10563 2.82706C1.37063 2.82706 1.58625 3.04265 1.58625 3.30768C1.58625 3.57271 1.37066 3.78831 1.10563 3.78831C0.840594 3.78831 0.625 3.57271 0.625 3.30768C0.625 3.04265 0.840594 2.82706 1.10563 2.82706ZM1.11881 14.2731H0.625V12.6561H1.67288C1.33469 13.2097 1.18175 13.8946 1.11881 14.2731ZM5.66994 10.343C5.53278 10.343 5.42119 10.2314 5.42119 10.0942L5.42106 8.44331H13.4146C14.0533 8.44331 14.5732 8.54353 14.9596 8.74115C15.2158 8.87215 15.375 9.13578 15.375 9.42918V10.0931C15.375 10.0935 15.3749 10.0939 15.3749 10.0943C15.3749 10.2314 15.2633 10.343 15.1262 10.343H5.66994V10.343ZM14.8812 14.2731C14.8182 13.8946 14.6653 13.2097 14.3272 12.6561H15.375V14.2731H14.8812Z" fill="#BEAD8E"/>
<path d="M4.96371 12.2241C4.89905 12.0665 4.71246 11.9903 4.55558 12.0551C4.39814 12.1201 4.32136 12.3059 4.38652 12.4632C4.45164 12.6205 4.63736 12.6974 4.79465 12.6323C4.95162 12.5673 5.02906 12.3811 4.96371 12.2241Z" fill="#BEAD8E"/>
</svg>
