<svg width="16" height="17" viewBox="0 0 16 17" fill="none" xmlns="http://www.w3.org/2000/svg">
<g clip-path="url(#clip0_22_2275)">
<path d="M8 4.11255C5.55316 4.11255 3.5625 6.1032 3.5625 8.55005C3.5625 10.9969 5.55316 12.9875 8 12.9875C10.4468 12.9875 12.4375 10.9969 12.4375 8.55005C12.4375 6.1032 10.4468 4.11255 8 4.11255ZM8 12.3625C5.89778 12.3625 4.1875 10.6523 4.1875 8.55005C4.1875 6.44783 5.89778 4.73755 8 4.73755C10.1022 4.73755 11.8125 6.44783 11.8125 8.55005C11.8125 10.6523 10.1022 12.3625 8 12.3625Z" fill="#BEAD8E"/>
<path d="M15.8341 0.586549C15.732 0.532361 15.6083 0.538893 15.5125 0.60358C13.9784 1.64017 13.0625 3.36442 13.0625 5.21595V9.2707C13.0625 9.70561 13.2319 10.1145 13.5394 10.422L14.125 11.0076V15.6125C14.125 16.1295 14.5456 16.55 15.0625 16.55C15.5794 16.55 16 16.1295 16 15.6125V0.862549C16 0.746955 15.9362 0.640799 15.8341 0.586549ZM15.375 15.6125C15.375 15.7849 15.2348 15.925 15.0625 15.925C14.8902 15.925 14.75 15.7849 14.75 15.6125V10.8782C14.75 10.7953 14.7171 10.7158 14.6585 10.6572L13.9813 9.98005C13.7918 9.79058 13.6875 9.53867 13.6875 9.2707V5.21595C13.6875 3.77908 14.3088 2.42864 15.375 1.49683V15.6125Z" fill="#BEAD8E"/>
<path d="M7.28268 6.07171C7.21493 5.91299 7.03124 5.83927 6.87255 5.90699C5.81214 6.35968 5.12695 7.39714 5.12695 8.55004C5.12695 8.72261 5.26686 8.86254 5.43945 8.86254C5.61205 8.86254 5.75196 8.72261 5.75196 8.55004C5.75196 7.64789 6.28814 6.83605 7.11796 6.48183C7.27668 6.41408 7.35043 6.23046 7.28268 6.07171Z" fill="#BEAD8E"/>
<path d="M8.00002 5.67737L7.98424 5.6774C7.81165 5.67856 7.67268 5.8194 7.67384 5.99199C7.67499 6.16387 7.81468 6.3024 7.9863 6.3024C7.98699 6.3024 7.98774 6.3024 7.98843 6.3024L8.00002 6.30237C8.17262 6.30237 8.31252 6.16246 8.31252 5.98987C8.31252 5.81727 8.17262 5.67737 8.00002 5.67737Z" fill="#BEAD8E"/>
<path d="M12.332 4.44002C11.7798 3.85827 11.129 3.40052 10.3976 3.07952C9.64026 2.74714 8.83357 2.57861 8.00001 2.57861C7.04751 2.57861 6.13701 2.7963 5.29382 3.22568C5.14004 3.30399 5.07882 3.49214 5.15713 3.64596C5.23547 3.79971 5.42363 3.86089 5.57744 3.78261C6.33194 3.39843 7.14701 3.20361 8.00001 3.20361C9.48113 3.20361 10.8586 3.79549 11.8786 4.87027C11.9401 4.93502 12.0226 4.96764 12.1054 4.96764C12.1826 4.96764 12.26 4.93918 12.3204 4.8818C12.4456 4.76299 12.4508 4.56521 12.332 4.44002Z" fill="#BEAD8E"/>
<path d="M12.6357 11.8119C12.5003 11.7049 12.3038 11.7278 12.1968 11.8632C11.1751 13.1554 9.64561 13.8965 8.00039 13.8965C6.9707 13.8965 5.9711 13.6032 5.10967 13.0484C4.9646 12.9549 4.77117 12.9968 4.67773 13.1419C4.58429 13.287 4.62617 13.4804 4.77126 13.5738C5.73382 14.1938 6.85045 14.5214 8.00039 14.5214C9.83789 14.5214 11.5461 13.6938 12.687 12.2508C12.7941 12.1154 12.7711 11.9189 12.6357 11.8119Z" fill="#BEAD8E"/>
<path d="M4.24868 12.3602L4.24409 12.3549C4.24243 12.3529 4.24078 12.3508 4.23906 12.3488C4.1279 12.2167 3.93078 12.1999 3.79875 12.311C3.66672 12.4222 3.64978 12.6193 3.76097 12.7513L3.764 12.7549L3.76416 12.7548C3.76747 12.759 3.7709 12.7632 3.77447 12.7673C3.83628 12.8393 3.92372 12.8762 4.01172 12.8762C4.08378 12.8762 4.15618 12.8515 4.21512 12.8009C4.34606 12.6884 4.36109 12.4911 4.24868 12.3602Z" fill="#BEAD8E"/>
<path d="M3.875 0.550049C3.70241 0.550049 3.5625 0.689955 3.5625 0.862549V4.23755H2.99975C2.99978 4.2358 3 4.23411 3 4.23233V0.862549C3 0.689955 2.86009 0.550049 2.6875 0.550049C2.51491 0.550049 2.375 0.689955 2.375 0.862549V4.23233C2.375 4.23408 2.37525 4.2358 2.37525 4.23755H1.81225C1.81228 4.2358 1.8125 4.23411 1.8125 4.23233V0.862549C1.8125 0.689955 1.67259 0.550049 1.5 0.550049C1.32741 0.550049 1.1875 0.689955 1.1875 0.862549V4.23233C1.1875 4.23408 1.18775 4.2358 1.18775 4.23755H0.625V0.862549C0.625 0.689955 0.485094 0.550049 0.3125 0.550049C0.139906 0.550049 0 0.689955 0 0.862549V4.67505C0 5.44161 0.465125 6.13346 1.15625 6.43252V15.6125C1.15625 16.1295 1.57681 16.55 2.09375 16.55C2.61069 16.55 3.03125 16.1295 3.03125 15.6125V6.43252C3.72237 6.13346 4.1875 5.44161 4.1875 4.67505V0.862549C4.1875 0.689955 4.04759 0.550049 3.875 0.550049ZM2.632 5.91317C2.49831 5.9518 2.40625 6.07421 2.40625 6.21339V15.6125C2.40625 15.7849 2.26606 15.925 2.09375 15.925C1.92144 15.925 1.78125 15.7849 1.78125 15.6125V6.21339C1.78125 6.07421 1.68922 5.9518 1.5555 5.91317C1.06853 5.77245 0.712344 5.35445 0.639125 4.86255H3.54834C3.47516 5.35445 3.11897 5.77245 2.632 5.91317Z" fill="#BEAD8E"/>
</g>
<defs>
<clipPath id="clip0_22_2275">
<rect width="16" height="16" fill="white" transform="translate(0 0.550049)"/>
</clipPath>
</defs>
</svg>
