<svg width="16" height="17" viewBox="0 0 16 17" fill="none" xmlns="http://www.w3.org/2000/svg">
<g clip-path="url(#clip0_23_2405)">
<g clip-path="url(#clip1_23_2405)">
<path d="M8.20732 5.25841L10.0833 5.79955H10.0833C10.1444 5.81718 10.2066 5.82593 10.2686 5.82593C10.3795 5.82593 10.4893 5.79786 10.5891 5.74273C10.7446 5.65685 10.8574 5.51556 10.9066 5.34489C11.0082 4.99255 10.8043 4.62323 10.452 4.5216L8.57601 3.98046C8.40546 3.93124 8.22573 3.95139 8.07018 4.03728C7.91467 4.12316 7.80191 4.26445 7.75269 4.43512C7.65105 4.7874 7.85501 5.15675 8.20732 5.25841ZM8.20307 4.56498C8.2176 4.5146 8.25089 4.47291 8.2968 4.44756C8.34274 4.42218 8.39577 4.41628 8.44612 4.43078L10.3221 4.97192C10.4261 5.00192 10.4863 5.11096 10.4563 5.21497C10.4417 5.26535 10.4084 5.30704 10.3625 5.33239C10.3166 5.35776 10.2636 5.3637 10.2132 5.34917H10.2132L8.33727 4.80803C8.23326 4.77803 8.17307 4.66902 8.20307 4.56498Z" fill="#BEAD8E"/>
<path d="M14.8337 13.085C14.7135 12.7683 14.4536 12.3731 13.8922 12.1374C14.109 11.8666 14.3633 11.407 14.3633 10.7402C14.3633 10.6107 14.2584 10.5058 14.129 10.5058C13.9995 10.5058 13.8946 10.6107 13.8946 10.7402C13.8946 11.2432 13.717 11.5925 13.5593 11.8038C13.3556 11.3287 13.0045 10.9926 12.5427 10.8411C12.4972 10.8261 12.451 10.8131 12.404 10.8019V6.23421C12.404 6.15795 12.367 6.08651 12.3046 6.0426C12.2423 5.99869 12.1625 5.98784 12.0907 6.01353L11.8701 6.09248C12.008 5.1874 11.9555 4.30807 11.7157 3.58029C11.4258 2.70077 10.8841 2.10619 10.1904 1.90604C9.44228 1.69021 8.61408 1.95111 7.85833 2.64061C7.44807 3.01492 7.08479 3.49312 6.78767 4.04217L6.5074 3.59382C6.31072 3.27907 6.20678 2.91682 6.20678 2.54619V2.11003C6.45098 1.96296 6.61472 1.69528 6.61472 1.39C6.61466 0.926863 6.23784 0.550049 5.77471 0.550049H3.10832C2.64519 0.550049 2.26837 0.926863 2.26837 1.39C2.26837 1.69521 2.43204 1.96286 2.67622 2.10997V2.54623C2.67622 2.91685 2.57227 3.27913 2.37554 3.59394L2.20524 3.86675C2.1367 3.97654 2.17014 4.12112 2.27994 4.18968C2.38979 4.25822 2.5343 4.22478 2.60287 4.11499L2.7731 3.84228C3.01637 3.45299 3.14495 3.00483 3.14495 2.54626V2.22998H5.73799V2.54623C5.73799 3.0048 5.86656 3.45293 6.10986 3.84228L6.52874 4.51234C6.53446 4.52153 6.53971 4.53059 6.54524 4.53971C6.4232 4.81893 6.31722 5.11186 6.22968 5.41523C6.13708 5.73604 6.06773 6.06029 6.02226 6.38275L4.99076 6.0136C4.9397 5.99531 4.88388 5.99531 4.83281 6.0136L3.09747 6.63465L2.05376 6.26109V5.56018C2.05376 5.33038 2.09323 5.10476 2.17102 4.88959C2.21502 4.76786 2.15205 4.6335 2.03032 4.5895C1.90862 4.54553 1.77423 4.60847 1.73023 4.7302C1.63388 4.99663 1.58503 5.2759 1.58503 5.56018V6.09332L1.36217 6.01356C1.29038 5.98787 1.21059 5.99869 1.14824 6.04263C1.08593 6.08654 1.04883 6.15798 1.04883 6.23424V16.3151C1.04883 16.4446 1.15374 16.5495 1.28319 16.5495C1.28319 16.5495 12.1186 16.5508 12.1546 16.5495H12.1697C12.1813 16.5495 12.1926 16.5483 12.2038 16.5467C12.7267 16.5182 13.2461 16.3479 13.7017 16.0294C13.8078 15.9552 13.8337 15.8091 13.7595 15.703C13.6854 15.5969 13.5392 15.5711 13.4332 15.6452C12.5166 16.2859 11.2929 16.2127 10.4576 15.4882C10.949 14.9255 11.2175 14.2126 11.2175 13.4584C11.2175 12.8084 11.018 12.1891 10.6484 11.6701C11.2037 11.2722 11.8834 11.118 12.3966 11.2865C12.8197 11.4253 13.1074 11.7745 13.2289 12.2965C13.2491 12.3835 13.317 12.4514 13.404 12.4717C13.9033 12.5878 14.2461 12.8574 14.3955 13.2513C14.5886 13.7606 14.4481 14.4636 14.0376 15.042C13.9626 15.1476 13.9875 15.2939 14.093 15.3688C14.1342 15.398 14.1816 15.4121 14.2284 15.4121C14.3018 15.4121 14.3741 15.3777 14.4198 15.3133C14.9258 14.6002 15.0845 13.7463 14.8337 13.085ZM3.10832 1.01878H5.77468C5.97935 1.01878 6.1459 1.18529 6.1459 1.39C6.1459 1.5947 5.97938 1.76122 5.77468 1.76122H3.10832C2.90365 1.76122 2.7371 1.5947 2.7371 1.39C2.7371 1.18529 2.90365 1.01878 3.10832 1.01878ZM6.68 5.54515C6.98178 4.49921 7.51242 3.59066 8.17417 2.98689C8.80494 2.4114 9.47465 2.18744 10.0603 2.35643C10.6008 2.51235 11.0305 2.99908 11.2704 3.72705C11.5095 4.45239 11.5411 5.35238 11.3627 6.27406L10.3549 6.63465L8.61933 6.01356C8.56823 5.99528 8.51248 5.99528 8.46138 6.01356L6.72604 6.63465L6.47364 6.54433C6.5153 6.21211 6.58428 5.87686 6.68 5.54515ZM9.76465 16.0807C9.88938 16.0024 10.009 15.9148 10.1228 15.8182C10.2317 15.9152 10.3463 16.0028 10.4656 16.0807H9.76465ZM9.98054 15.3126C9.48525 15.8079 8.82675 16.0807 8.12629 16.0807C7.42585 16.0807 6.76733 15.8079 6.27203 15.3126C5.65576 14.6964 5.3592 13.7976 5.55084 13.127C5.69048 12.6384 6.07526 12.3077 6.66357 12.1708C6.75054 12.1505 6.81845 12.0826 6.83871 11.9957C6.97562 11.4073 7.30628 11.0225 7.79491 10.8829C7.93133 10.8439 8.07719 10.8251 8.22817 10.8251C8.81947 10.8251 9.48962 11.1132 9.98051 11.6041C10.4758 12.0994 10.7486 12.7579 10.7486 13.4583C10.7486 14.1588 10.4759 14.8173 9.98054 15.3126ZM10.312 11.2727C9.56929 10.53 8.50601 10.1922 7.66615 10.4323C7.13176 10.585 6.72929 10.9596 6.50474 11.5038C6.32966 11.2772 6.12333 10.8911 6.12333 10.3285C6.12333 10.199 6.01842 10.0941 5.88897 10.0941C5.75952 10.0941 5.6546 10.199 5.6546 10.3285C5.6546 11.0555 5.93775 11.5512 6.17165 11.8368C5.62751 12.0614 5.25288 12.4638 5.10018 12.9982C4.86016 13.8381 5.19791 14.9014 5.9406 15.6441C6.1083 15.8118 6.29194 15.9577 6.48799 16.0807H1.51753V6.56702L3.0185 7.10422C3.06957 7.12251 3.12538 7.12251 3.17645 7.10422L4.91179 6.48314L6.64713 7.10422C6.69819 7.12251 6.75401 7.12251 6.80508 7.10422L8.54042 6.48314L10.276 7.10422C10.3271 7.12247 10.3829 7.12251 10.434 7.10422L11.9353 6.56699V10.7498C11.4058 10.7524 10.837 10.949 10.3476 11.3091C10.3358 11.2969 10.324 11.2847 10.312 11.2727Z" fill="#BEAD8E"/>
</g>
</g>
<defs>
<clipPath id="clip0_23_2405">
<rect width="16" height="16" fill="white" transform="translate(0 0.550049)"/>
</clipPath>
<clipPath id="clip1_23_2405">
<rect width="16" height="16" fill="white" transform="translate(0 0.550049)"/>
</clipPath>
</defs>
</svg>
