<svg width="16" height="17" viewBox="0 0 16 17" fill="none" xmlns="http://www.w3.org/2000/svg">
<g clip-path="url(#clip0_23_2433)">
<path d="M15.6875 13.4461H15.0676V7.08294C15.4328 6.80138 15.6686 6.35963 15.6686 5.86384V4.18884C15.6686 4.18591 15.6669 4.11581 15.6438 4.06566L14.6519 1.58468C14.6044 1.466 14.4895 1.38818 14.3617 1.38818H1.63828C1.51047 1.38818 1.39556 1.466 1.34809 1.58468L0.35625 4.06566C0.333094 4.1105 0.331437 4.18591 0.331437 4.18884V5.86384C0.331437 6.35963 0.567187 6.80138 0.932437 7.08294V13.446H0.3125C0.139906 13.446 0 13.5859 0 13.7585V15.3993C0 15.5719 0.139906 15.7118 0.3125 15.7118H6.58731C6.75991 15.7118 6.89981 15.5719 6.89981 15.3993C6.89981 15.2267 6.75991 15.0868 6.58731 15.0868H0.625V14.071H15.375V15.0868H9.41272C9.24012 15.0868 9.10022 15.2267 9.10022 15.3993C9.10022 15.5719 9.24012 15.7118 9.41272 15.7118H15.6875C15.8601 15.7118 16 15.5719 16 15.3993V13.7585C16 13.586 15.8601 13.4461 15.6875 13.4461ZM12.5915 5.86384C12.5915 6.36756 12.1817 6.77735 11.678 6.77735C11.1743 6.77735 10.7645 6.36753 10.7645 5.86384V4.50041H12.5915V5.86384ZM10.1395 5.86384C10.1395 6.36756 9.72972 6.77735 9.22603 6.77735C8.72234 6.77735 8.3125 6.36756 8.3125 5.86384V4.50041H10.1395V5.86384ZM7.6875 5.86384C7.6875 6.36756 7.27769 6.77735 6.774 6.77735C6.27031 6.77735 5.8605 6.36753 5.8605 5.86384V4.50041H7.6875V5.86384ZM5.2355 5.86384C5.2355 6.36756 4.82569 6.77735 4.322 6.77735C3.81831 6.77735 3.4085 6.36753 3.4085 5.86384V4.50041H5.23553V5.86384H5.2355ZM0.956438 5.86384V4.50041H2.78344V5.86384C2.78344 6.36756 2.37363 6.77735 1.86994 6.77735C1.36625 6.77735 0.956438 6.36756 0.956438 5.86384ZM5.52253 2.01318L5.27437 3.87541H3.50266L3.99897 2.01318H5.52253ZM8.3125 2.01318H9.84694L10.0951 3.87541H8.3125V2.01318ZM12.001 2.01318L12.4973 3.87541H10.7257L10.4775 2.01318H12.001ZM13.2165 4.50041H15.0435V5.86384C15.0435 6.36756 14.6337 6.77735 14.13 6.77735C13.6263 6.77735 13.2165 6.36753 13.2165 5.86384V4.50041ZM14.8946 3.87541H13.1441L12.6478 2.01318H14.1501L14.8946 3.87541ZM7.6875 3.87541H5.90491L6.15306 2.01318H7.6875V3.87541ZM1.84991 2.01318H3.35216L2.85584 3.87541H1.10544L1.84991 2.01318ZM3.05628 13.4461V8.89816H6.28944V13.446H3.05628V13.4461ZM6.91444 13.4461V8.58566C6.91444 8.41307 6.77453 8.27316 6.60194 8.27316H2.74378C2.57119 8.27316 2.43128 8.41307 2.43128 8.58566V13.446H1.55744V7.37044C1.65838 7.39135 1.76291 7.40235 1.86994 7.40235C2.36981 7.40235 2.81472 7.16269 3.09594 6.79228C3.37713 7.16269 3.82206 7.40235 4.32194 7.40235C4.82181 7.40235 5.26675 7.16269 5.54794 6.79228C5.82912 7.16269 6.27406 7.40235 6.77394 7.40235C7.27381 7.40235 7.71875 7.16269 7.99994 6.79228C8.28113 7.16269 8.72606 7.40235 9.22594 7.40235C9.72581 7.40235 10.1708 7.16269 10.4519 6.79228C10.7331 7.16269 11.1781 7.40235 11.6779 7.40235C12.1778 7.40235 12.6228 7.16269 12.9039 6.79228C13.1851 7.16269 13.6301 7.40235 14.1299 7.40235C14.237 7.40235 14.3415 7.39135 14.4424 7.37044V13.446H6.91444V13.4461Z" fill="#BEAD8E"/>
<path d="M13.2565 8.27319H8.39746C8.22487 8.27319 8.08496 8.4131 8.08496 8.58569V11.9846C8.08496 12.1572 8.22487 12.2971 8.39746 12.2971H13.2565C13.4291 12.2971 13.569 12.1572 13.569 11.9846V8.58569C13.569 8.4131 13.4291 8.27319 13.2565 8.27319ZM12.944 11.6721H10.7988L11.3256 11.1453C11.4476 11.0233 11.4476 10.8254 11.3256 10.7034C11.2036 10.5813 11.0057 10.5813 10.8836 10.7034L9.9149 11.6721H8.70993V8.89819H12.944V11.6721H12.944Z" fill="#BEAD8E"/>
<path d="M9.45703 11.0789C9.37706 11.0789 9.29706 11.0484 9.23606 10.9874C9.11402 10.8653 9.11402 10.6675 9.23606 10.5454L10.4806 9.30087C10.6026 9.17884 10.8005 9.17884 10.9226 9.30087C11.0446 9.42291 11.0446 9.62078 10.9226 9.74284L9.67803 10.9874C9.61696 11.0484 9.537 11.0789 9.45703 11.0789Z" fill="#BEAD8E"/>
<path d="M8.00526 15.7119C7.8728 15.7119 7.75221 15.6248 7.70964 15.4997C7.66821 15.378 7.70771 15.2396 7.80702 15.1579C7.90898 15.074 8.05805 15.064 8.17017 15.1339C8.27929 15.202 8.3372 15.334 8.31182 15.4603C8.28286 15.6045 8.15258 15.7119 8.00526 15.7119Z" fill="#BEAD8E"/>
</g>
<defs>
<clipPath id="clip0_23_2433">
<rect width="16" height="16" fill="white" transform="translate(0 0.550049)"/>
</clipPath>
</defs>
</svg>
