<svg width="16" height="17" viewBox="0 0 16 17" fill="none" xmlns="http://www.w3.org/2000/svg">
<g clip-path="url(#clip0_24_2583)">
<path d="M15.4521 2.72008H13.4245C13.2836 2.20755 12.8092 1.83142 12.2618 1.83142H4.21359C3.6585 1.83142 3.19009 2.20861 3.05053 2.72008H0.547938C0.245813 2.72008 0 2.96589 0 3.26804V3.7827C0 4.08482 0.245813 4.33064 0.547938 4.33064H3.00791V8.74132C3.00791 8.87101 3.11303 8.97616 3.24275 8.97616C3.37247 8.97616 3.47759 8.87101 3.47759 8.74132V3.03711C3.47759 2.6313 3.80775 2.30111 4.21359 2.30111H11.3075C11.15 2.50486 11.0562 2.76026 11.0562 3.03711V11.5397H3.47759V9.68066C3.47759 9.55097 3.37244 9.44582 3.24275 9.44582C3.11306 9.44582 3.00791 9.55097 3.00791 9.68066V14.5642C3.00791 14.9527 3.32394 15.2687 3.71241 15.2687H10.8213C11.2098 15.2687 11.5258 14.9527 11.5258 14.5642V11.1438H12.763C13.1514 11.1438 13.4675 10.8278 13.4675 10.4393V6.32804C13.4675 6.19835 13.3623 6.0932 13.2326 6.0932C13.1029 6.0932 12.9978 6.19832 12.9978 6.32804V10.4393C12.9978 10.5688 12.8924 10.6741 12.7629 10.6741H11.5258V4.33064H12.9978V5.3887C12.9978 5.51839 13.1029 5.62354 13.2326 5.62354C13.3623 5.62354 13.4675 5.51842 13.4675 5.3887V4.33064H15.452C15.7542 4.33064 16 4.08482 16 3.7827V3.26804C16 2.96589 15.7542 2.72008 15.4521 2.72008ZM0.547938 3.86098C0.504781 3.86098 0.469656 3.82586 0.469656 3.7827V3.26804C0.469656 3.22489 0.504781 3.18976 0.547938 3.18976H3.00791V3.86098H0.547938ZM12.2618 2.30111C12.5502 2.30111 12.8051 2.47223 12.9248 2.72011H11.5977C11.7163 2.47251 11.9694 2.30111 12.2618 2.30111ZM10.8213 14.7991H3.71244C3.58297 14.7991 3.47759 14.6937 3.47759 14.5642V13.555H8.34966C8.47934 13.555 8.5845 13.4498 8.5845 13.3201C8.5845 13.1904 8.47934 13.0853 8.34966 13.0853H3.47759V12.0093H11.0562V13.0853H9.289C9.15931 13.0853 9.05416 13.1904 9.05416 13.3201C9.05416 13.4498 9.15931 13.555 9.289 13.555H11.0562V14.5642C11.0561 14.6937 10.9508 14.7991 10.8213 14.7991ZM15.5303 3.7827C15.5303 3.82586 15.4952 3.86098 15.4521 3.86098H11.5258V3.18976H15.4521C15.4952 3.18976 15.5303 3.22489 15.5303 3.26804V3.7827Z" fill="#BEAD8E"/>
</g>
<defs>
<clipPath id="clip0_24_2583">
<rect width="16" height="16" fill="white" transform="translate(0 0.550049)"/>
</clipPath>
</defs>
</svg>
