<svg width="12" height="11" viewBox="0 0 12 11" fill="none" xmlns="http://www.w3.org/2000/svg">
<path d="M5.95 6.87089C5.24315 6.87089 4.53629 7.16195 4.07892 7.70248C3.66312 8.20144 2.91469 7.53616 3.33048 7.03721C3.99576 6.28877 4.95209 5.87298 5.95 5.87298C6.94791 5.87298 7.90424 6.28877 8.56952 7.03721C8.98531 7.53616 8.23688 8.20144 7.82108 7.70248C7.36371 7.16195 6.65685 6.87089 5.95 6.87089ZM5.95 10.3636C5.40946 10.3636 4.95209 9.9062 4.95209 9.36567C4.95209 8.82513 5.40946 8.36776 5.95 8.36776C6.49053 8.36776 6.94791 8.82513 6.94791 9.36567C6.94791 9.9062 6.49053 10.3636 5.95 10.3636ZM5.95 4.37611C4.61945 4.37611 3.41364 4.83349 2.45731 5.78982C2.04151 6.20562 1.2515 5.58192 1.75046 5.08297C2.87311 3.96032 4.36997 3.3782 5.95 3.3782C7.53003 3.3782 9.02689 3.96032 10.1495 5.08297C10.6485 5.58192 9.85849 6.20562 9.44269 5.78982C8.48636 4.83349 7.28055 4.37611 5.95 4.37611ZM5.95 1.88133C4.03734 1.88133 2.24941 2.58819 0.877283 3.87716C0.378328 4.33453 -0.328526 3.62768 0.17043 3.1703C1.79204 1.67344 3.78786 0.883423 5.95 0.883423C8.11214 0.883423 10.108 1.67344 11.7296 3.1703C12.2285 3.62768 11.5217 4.33453 11.0227 3.87716C9.65059 2.58819 7.86266 1.88133 5.95 1.88133Z" fill="#BEAD8E"/>
</svg>
