<svg width="5" height="8" viewBox="0 0 5 8" fill="none" xmlns="http://www.w3.org/2000/svg">
<path d="M3.81874 7.63778C3.7818 7.6378 3.74522 7.63054 3.71108 7.61641C3.67695 7.60229 3.64593 7.58158 3.6198 7.55547L0.153117 4.08859C0.10039 4.03585 0.0707703 3.96433 0.0707703 3.88975C0.0707703 3.81517 0.10039 3.74365 0.153117 3.69091L3.6198 0.224032C3.64592 0.197907 3.67692 0.177181 3.71104 0.163038C3.74516 0.148894 3.78174 0.14161 3.81868 0.141602C3.85561 0.141593 3.89219 0.14886 3.92632 0.162987C3.96045 0.177114 3.99146 0.197825 4.01759 0.223938C4.04371 0.25005 4.06444 0.281053 4.07858 0.315175C4.09272 0.349298 4.10001 0.385872 4.10002 0.422809C4.10002 0.459746 4.09276 0.496324 4.07863 0.530453C4.0645 0.564582 4.04379 0.595594 4.01768 0.621719L0.749742 3.88966L4.01768 7.15759C4.05704 7.19693 4.08385 7.24705 4.09471 7.30162C4.10557 7.3562 4.1 7.41277 4.0787 7.46418C4.05741 7.51558 4.02134 7.55952 3.97506 7.59042C3.92879 7.62132 3.87439 7.6378 3.81874 7.63778Z" fill="#111111"/>
</svg>
