<svg width="16" height="16" viewBox="0 0 16 16" fill="none" xmlns="http://www.w3.org/2000/svg">
<path d="M6.77218 5.0001L3.67418 1.8576C3.47868 1.6606 3.47868 1.3406 3.67418 1.1436C3.86968 0.9466 4.18618 0.9466 4.38118 1.1436L7.83068 4.6431C8.01818 4.8326 8.01918 5.1671 7.83068 5.3576L4.38068 8.8571C4.18568 9.0541 3.86868 9.0541 3.67368 8.8571C3.47818 8.6601 3.47818 8.3401 3.67368 8.1431L6.77218 5.0001Z" fill="#121313"/>
<path d="M3.27218 5.0001L0.17418 1.8576C-0.0213203 1.6606 -0.0213203 1.3406 0.17418 1.1436C0.369679 0.9466 0.686179 0.9466 0.881179 1.1436L4.33068 4.6431C4.51818 4.8326 4.51918 5.1671 4.33068 5.3576L0.881179 8.8571C0.685679 9.0541 0.36918 9.0541 0.17418 8.8571C-0.0213203 8.6601 -0.0213203 8.3401 0.17418 8.1431L3.27218 5.0001Z" fill="#121313"/>
</svg>
