<svg width="16" height="16" viewBox="0 0 16 16" fill="none" xmlns="http://www.w3.org/2000/svg">
<path d="M5.22782 8.0001L8.32582 4.8576C8.52132 4.6606 8.52132 4.3406 8.32582 4.1436C8.13032 3.9466 7.81382 3.9466 7.61882 4.1436L4.16932 7.6431C3.98182 7.8326 3.98082 8.1671 4.16932 8.3576L7.61932 11.8571C7.81432 12.0541 8.13132 12.0541 8.32632 11.8571C8.52182 11.6601 8.52182 11.3401 8.32632 11.1431L5.22782 8.0001Z" fill="#121313"/>
<path d="M8.72782 8.0001L11.8258 4.8576C12.0213 4.6606 12.0213 4.3406 11.8258 4.1436C11.6303 3.9466 11.3138 3.9466 11.1188 4.1436L7.66932 7.6431C7.48182 7.8326 7.48082 8.1671 7.66932 8.3576L11.1188 11.8571C11.3143 12.0541 11.6308 12.0541 11.8258 11.8571C12.0213 11.6601 12.0213 11.3401 11.8258 11.1431L8.72782 8.0001Z" fill="#121313"/>
</svg>
