<svg width="22" height="22" viewBox="0 0 22 22" fill="none" xmlns="http://www.w3.org/2000/svg">
<path d="M21.2825 20.2175L16.4075 15.3425H16.355C17.8576 13.5708 18.6169 11.2867 18.4741 8.96804C18.3314 6.64935 17.2975 4.47568 15.5889 2.90172C13.8803 1.32777 11.6293 0.475453 9.30667 0.523072C6.98408 0.570691 4.76986 1.51455 3.12719 3.15722C1.48452 4.79989 0.540662 7.01411 0.493043 9.3367C0.445424 11.6593 1.29774 13.9103 2.87169 15.619C4.44565 17.3276 6.61932 18.3614 8.93801 18.5042C11.2567 18.6469 13.5408 17.8876 15.3125 16.385C15.3125 16.385 15.3125 16.4225 15.3125 16.4375L20.1875 21.3125C20.2572 21.3828 20.3402 21.4386 20.4315 21.4767C20.5229 21.5148 20.621 21.5344 20.72 21.5344C20.819 21.5344 20.917 21.5148 21.0084 21.4767C21.0998 21.4386 21.1828 21.3828 21.2525 21.3125C21.3294 21.2444 21.3915 21.1613 21.4349 21.0682C21.4783 20.9752 21.5022 20.8742 21.505 20.7715C21.5078 20.6689 21.4895 20.5667 21.4513 20.4714C21.413 20.3761 21.3555 20.2897 21.2825 20.2175V20.2175ZM9.49998 17C8.01662 17 6.56657 16.5601 5.3332 15.736C4.09983 14.9119 3.13854 13.7406 2.57088 12.3701C2.00323 10.9997 1.8547 9.49169 2.14409 8.03683C2.43348 6.58198 3.14779 5.2456 4.19668 4.19671C5.24557 3.14781 6.58195 2.43351 8.0368 2.14412C9.49166 1.85473 10.9997 2.00326 12.3701 2.57091C13.7406 3.13857 14.9119 4.09986 15.736 5.33323C16.5601 6.5666 17 8.01665 17 9.50001C17 10.4849 16.806 11.4602 16.4291 12.3701C16.0522 13.2801 15.4997 14.1069 14.8033 14.8033C14.1068 15.4997 13.28 16.0522 12.3701 16.4291C11.4602 16.806 10.4849 17 9.49998 17V17Z" fill="#111111"/>
</svg>
