<svg width="22" height="21" viewBox="0 0 22 21" fill="none" xmlns="http://www.w3.org/2000/svg">
<path d="M15.4603 10.249C16.4143 9.18625 17 7.78675 17 6.25C17 2.94175 14.3082 0.25 11 0.25C7.69175 0.25 5 2.94175 5 6.25C5 9.55825 7.69175 12.25 11 12.25C12.1663 12.25 13.2522 11.9102 14.1747 11.332C17.4373 12.5612 19.6835 15.547 19.9692 19H2.0315C2.22575 16.6758 3.31625 14.5082 5.09 12.9618C5.40275 12.6895 5.435 12.2163 5.16275 11.9035C4.89125 11.5915 4.41725 11.5585 4.1045 11.8307C1.81325 13.8272 0.5 16.7132 0.5 19.75C0.5 20.1647 0.836 20.5 1.25 20.5H20.75C21.1647 20.5 21.5 20.1647 21.5 19.75C21.5 15.6355 19.115 11.9613 15.4603 10.249ZM6.5 6.25C6.5 3.76825 8.51825 1.75 11 1.75C13.4818 1.75 15.5 3.76825 15.5 6.25C15.5 8.73175 13.4818 10.75 11 10.75C8.51825 10.75 6.5 8.73175 6.5 6.25Z" fill="#111111"/>
</svg>
